<svg width="147" height="31" viewBox="0 0 147 31" fill="none" xmlns="http://www.w3.org/2000/svg">
<path d="M18.3646 4.77312L15.5304 10.5196L9.18926 11.4441C8.0521 11.6091 7.59637 13.011 8.42103 13.8139L13.0087 18.2844L11.9236 24.5995C11.7283 25.741 12.9306 26.596 13.9375 26.0622L19.6103 23.0804L25.283 26.0622C26.29 26.5917 27.4922 25.741 27.2969 24.5995L26.2118 18.2844L30.7995 13.8139C31.6242 13.011 31.1684 11.6091 30.0313 11.4441L23.6901 10.5196L20.8559 4.77312C20.3481 3.74881 18.8768 3.73579 18.3646 4.77312Z" fill="#F0F0F0"/>
<path d="M46.3646 4.77312L43.5304 10.5196L37.1893 11.4441C36.0521 11.6091 35.5964 13.011 36.421 13.8139L41.0087 18.2844L39.9236 24.5995C39.7283 25.741 40.9306 26.596 41.9375 26.0622L47.6103 23.0804L53.283 26.0622C54.29 26.5917 55.4922 25.741 55.2969 24.5995L54.2118 18.2844L58.7995 13.8139C59.6242 13.011 59.1684 11.6091 58.0313 11.4441L51.6901 10.5196L48.8559 4.77312C48.3481 3.74881 46.8768 3.73579 46.3646 4.77312Z" fill="#F0F0F0"/>
<path d="M74.3646 4.77312L71.5304 10.5196L65.1893 11.4441C64.0521 11.6091 63.5964 13.011 64.421 13.8139L69.0087 18.2844L67.9236 24.5995C67.7283 25.741 68.9306 26.596 69.9375 26.0622L75.6103 23.0804L81.283 26.0622C82.29 26.5917 83.4922 25.741 83.2969 24.5995L82.2118 18.2844L86.7995 13.8139C87.6242 13.011 87.1684 11.6091 86.0313 11.4441L79.6901 10.5196L76.8559 4.77312C76.3481 3.74881 74.8768 3.73579 74.3646 4.77312Z" fill="#F0F0F0"/>
<path d="M102.365 4.77312L99.5304 10.5196L93.1893 11.4441C92.0521 11.6091 91.5964 13.011 92.421 13.8139L97.0087 18.2844L95.9236 24.5995C95.7283 25.741 96.9306 26.596 97.9375 26.0622L103.61 23.0804L109.283 26.0622C110.29 26.5917 111.492 25.741 111.297 24.5995L110.212 18.2844L114.799 13.8139C115.624 13.011 115.168 11.6091 114.031 11.4441L107.69 10.5196L104.856 4.77312C104.348 3.74881 102.877 3.73579 102.365 4.77312Z" fill="#F0F0F0"/>
<path d="M130.365 4.77312L127.53 10.5196L121.189 11.4441C120.052 11.6091 119.596 13.011 120.421 13.8139L125.009 18.2844L123.924 24.5995C123.728 25.741 124.931 26.596 125.938 26.0622L131.61 23.0804L137.283 26.0622C138.29 26.5917 139.492 25.741 139.297 24.5995L138.212 18.2844L142.799 13.8139C143.624 13.011 143.168 11.6091 142.031 11.4441L135.69 10.5196L132.856 4.77312C132.348 3.74881 130.877 3.73579 130.365 4.77312Z" fill="#F0F0F0"/>
</svg>
